HIERARCHY
ROOT root
{
	OFFSET 0.000000 0.000000 0.000000
	CHANNELS 6 Xposition Yposition Zposition Zrotation Yrotation Xrotation
	JOINT lhip
	{
		OFFSET 0.058581 -0.082280 -0.017664
		CHANNELS 3 Zrotation Yrotation Xrotation
		JOINT lknee
		{
			OFFSET 0.043451 -0.386469 0.008037
			CHANNELS 3 Zrotation Yrotation Xrotation
			JOINT lankle
			{
				OFFSET -0.014790 -0.426874 -0.037428
				CHANNELS 3 Zrotation Yrotation Xrotation
				JOINT ltoe
				{
					OFFSET 0.041054 -0.060286 0.122042
					CHANNELS 3 Zrotation Yrotation Xrotation
					End Site
					{
						OFFSET 0.000000 0.000000 0.000000
					}
				}
			}
		}
	}
	JOINT rhip
	{
		OFFSET -0.060310 -0.090513 -0.013543
		CHANNELS 3 Zrotation Yrotation Xrotation
		JOINT rknee
		{
			OFFSET -0.043257 -0.383688 -0.004843
			CHANNELS 3 Zrotation Yrotation Xrotation
			JOINT rankle
			{
				OFFSET 0.019056 -0.420046 -0.034562
				CHANNELS 3 Zrotation Yrotation Xrotation
				JOINT rtoe
				{
					OFFSET -0.034840 -0.062106 0.130323
					CHANNELS 3 Zrotation Yrotation Xrotation
					End Site
					{
						OFFSET 0.000000 0.000000 0.000000
					}
				}
			}
		}
	}
	JOINT lowerback
	{
		OFFSET 0.004439 0.124404 -0.038385
		CHANNELS 3 Zrotation Yrotation Xrotation
		JOINT upperback
		{
			OFFSET 0.004488 0.137956 0.026820
			CHANNELS 3 Zrotation Yrotation Xrotation
			JOINT chest
			{
				OFFSET -0.002265 0.056032 0.002855
				CHANNELS 3 Zrotation Yrotation Xrotation
				JOINT lowerneck
				{
					OFFSET -0.013390 0.211636 -0.033468
					CHANNELS 3 Zrotation Yrotation Xrotation
					JOINT upperneck
					{
						OFFSET 0.010113 0.088937 0.050410
						CHANNELS 3 Zrotation Yrotation Xrotation
						End Site
						{
							OFFSET 0.000000 0.000000 0.000000
						}
					}
				}
				JOINT lclavicle
				{
					OFFSET 0.071702 0.114000 -0.018898
					CHANNELS 3 Zrotation Yrotation Xrotation
					JOINT lshoulder
					{
						OFFSET 0.122921 0.045205 -0.019046
						CHANNELS 3 Zrotation Yrotation Xrotation
						JOINT lelbow
						{
							OFFSET 0.255332 -0.015649 -0.022946
							CHANNELS 3 Zrotation Yrotation Xrotation
							JOINT lwrist
							{
								OFFSET 0.265709 0.012698 -0.007375
								CHANNELS 3 Zrotation Yrotation Xrotation
								End Site
								{
									OFFSET 0.000000 0.000000 0.000000
								}
							}
						}
					}
				}
				JOINT rclavicle
				{
					OFFSET -0.082954 0.112472 -0.023707
					CHANNELS 3 Zrotation Yrotation Xrotation
					JOINT rshoulder
					{
						OFFSET -0.113228 0.046853 -0.008472
						CHANNELS 3 Zrotation Yrotation Xrotation
						JOINT relbow
						{
							OFFSET -0.260127 -0.014369 -0.031269
							CHANNELS 3 Zrotation Yrotation Xrotation
							JOINT rwrist
							{
								OFFSET -0.269108 0.006794 -0.006027
								CHANNELS 3 Zrotation Yrotation Xrotation
								End Site
								{
									OFFSET 0.000000 0.000000 0.000000
								}
							}
						}
					}
				}
			}
		}
	}
}
MOTION
Frames: 10
Frame Time: 0.033333
-0.157224 1.193029 0.869211 83.962929 3.427171 82.574859 14.733360 0.569799 -7.566009 -11.037969 -4.466578 49.396912 5.773050 9.373228 -41.838304 0.000000 -0.000000 0.000000 -11.235027 3.865644 -14.661904 5.435367 13.145922 48.022418 4.089811 2.479511 -36.366299 0.000000 -0.000000 0.000000 -4.950938 -1.132382 3.164806 9.256599 -2.807477 0.674452 2.780741 -4.034367 3.051751 7.079702 11.760862 -17.388478 -6.681837 -0.811860 -1.865841 -23.688779 16.577697 -2.106020 -58.230275 -3.270428 12.819677 179.719980 -75.055637 -153.664880 6.621215 -5.786964 -36.070028 29.786941 -13.011787 -7.855299 55.515472 3.219444 17.732828 -110.380467 62.288491 -94.144447 -8.245836 4.256008 -29.216893 
-0.156473 1.200786 0.870169 82.772031 3.781984 82.574719 14.572819 0.577258 -7.280279 -11.130182 -3.817264 49.465485 5.678157 10.136289 -42.168893 0.000000 -0.000000 0.000000 -11.309224 3.916793 -14.683446 5.338062 13.801622 47.000660 4.236069 3.059058 -35.531763 0.000000 -0.000000 0.000000 -4.806299 -0.723688 3.131287 8.977747 -1.913149 0.593641 2.687954 -3.162992 3.100586 7.400411 10.907830 -17.498118 -6.490095 -1.553292 -2.276178 -23.448806 18.161056 -1.915514 -57.110621 -0.551934 12.352377 179.000700 -74.704467 -154.513196 8.534184 -4.398913 -37.530808 29.306220 -12.653171 -7.673616 55.339253 4.280969 18.079314 -111.235752 62.776921 -95.663051 -9.604162 3.417541 -29.620235 
-0.155256 1.208957 0.870863 82.249990 4.172643 82.702611 14.439369 0.647175 -7.371969 -11.466385 -3.615202 49.687647 5.748137 10.765372 -42.366732 0.000000 -0.000000 0.000000 -11.291354 3.968300 -14.521258 5.268135 14.445256 45.996293 4.568022 2.930345 -34.820116 0.000000 -0.000000 0.000000 -4.682459 -0.492680 2.857599 8.779938 -1.328806 0.452342 2.540988 -2.573029 3.277327 7.653675 9.849862 -17.514208 -6.202462 -2.228988 -2.679739 -22.913645 19.443200 -1.452700 -56.282707 1.493281 12.173506 176.633431 -74.437355 -153.978085 11.330309 -2.556430 -40.622318 28.917269 -12.434201 -7.694703 55.145513 5.169952 18.385373 -111.339664 63.069463 -96.081251 -11.599547 2.700843 -29.155265 
-0.153931 1.220033 0.871070 81.817986 4.294948 82.610241 13.901339 0.708849 -7.311714 -11.604883 -3.059057 49.904654 5.859537 11.213340 -42.612519 0.000000 -0.000000 0.000000 -11.463384 4.113262 -14.082956 4.866837 15.432896 44.819459 5.055255 2.521328 -33.827432 0.000000 -0.000000 0.000000 -4.651334 -0.265089 2.790134 8.300279 -0.787972 0.464953 2.264373 -1.992856 3.502626 7.724789 8.704878 -17.686041 -5.912197 -2.606546 -3.391971 -22.330217 20.660112 -1.054394 -55.511827 2.920519 11.678154 171.484196 -74.346653 -151.327163 12.789594 -1.006671 -44.992114 28.464679 -12.517943 -7.787605 55.100128 5.909586 18.717353 -110.278414 63.485081 -95.745049 -13.248772 2.337570 -27.890251 
-0.153355 1.226960 0.871115 81.910821 4.504000 82.619057 13.698391 0.551997 -7.546570 -11.880779 -2.840110 50.270461 5.728289 11.402329 -42.716912 0.000000 -0.000000 0.000000 -11.472297 4.303740 -13.748698 4.679466 15.837701 44.208296 5.377876 2.091820 -33.414664 0.000000 -0.000000 0.000000 -4.516280 -0.273698 2.830903 8.074163 -0.716607 0.470980 2.122450 -1.734066 3.508966 7.553182 7.916685 -17.709245 -5.586073 -2.783511 -3.879333 -22.071219 20.892864 -0.880197 -55.450708 3.365781 11.460841 167.228279 -74.153212 -148.328191 13.505315 0.125227 -47.124327 28.028383 -12.423921 -7.593193 55.216855 5.688125 18.797462 -110.220371 63.484561 -95.756808 -13.678823 1.956665 -27.655426 
-0.152893 1.236599 0.870460 81.667127 4.658837 82.705664 13.396468 0.767274 -7.933565 -11.834111 -2.165147 50.748522 6.075026 11.269347 -42.731981 0.000000 -0.000000 0.000000 -11.401003 4.456866 -13.716760 3.919942 16.667175 43.658950 5.563873 1.872799 -32.495763 0.000000 -0.000000 0.000000 -4.260185 -0.248099 2.832897 7.704936 -0.508422 0.281050 1.918210 -1.669334 3.809346 7.209002 6.903572 -17.857058 -5.252845 -2.615779 -4.243880 -22.059982 21.138569 -0.903687 -55.531573 3.099843 11.208993 161.638412 -73.769546 -144.512529 14.713180 1.649488 -49.174857 27.670228 -12.668319 -7.417902 55.351151 5.630222 19.002917 -109.548211 63.853515 -95.640838 -13.659290 2.103995 -27.610606 
-0.152730 1.246514 0.869728 81.669169 4.733345 82.623553 12.857565 0.569587 -8.119208 -11.935205 -1.743257 50.988193 6.553744 11.609207 -42.974532 0.000000 -0.000000 0.000000 -11.389492 5.037083 -13.573256 3.240099 17.609076 43.542364 5.945616 1.488687 -31.335946 0.000000 -0.000000 0.000000 -4.188425 -0.609397 3.110763 7.445670 -0.659925 0.349587 1.747192 -1.846083 4.009363 6.888782 6.350769 -18.037471 -5.037773 -2.154071 -4.603040 -22.220168 21.156316 -0.913380 -55.986381 2.430526 10.860632 156.790591 -73.100744 -140.560487 14.019103 1.927453 -51.490371 27.548298 -12.962393 -7.430366 55.634733 5.316525 19.468587 -108.863810 64.140275 -94.830783 -12.549637 2.235629 -27.596242 
-0.154574 1.256253 0.868841 81.401489 4.672154 82.679824 12.192357 0.782793 -8.601619 -11.977817 -1.443498 51.451242 6.934555 11.894072 -42.947313 0.000000 -0.000000 0.000000 -11.235480 6.176008 -14.582972 2.573950 18.465184 45.002321 6.043103 1.203114 -29.511254 0.000000 -0.000000 0.000000 -4.659435 -1.116147 3.503999 7.399015 -0.862508 0.260484 1.871831 -2.162826 4.152444 6.704706 5.851164 -18.221057 -4.870932 -1.650604 -4.390923 -22.442270 20.816433 -1.120769 -56.953363 1.154120 10.860045 152.557925 -72.428662 -137.294771 14.693455 2.785365 -52.735585 27.389374 -13.360123 -7.425086 55.927457 4.546435 20.047155 -108.587715 64.736818 -94.699189 -12.039595 2.139015 -28.159112 
-0.154914 1.266073 0.868600 82.195944 5.041131 82.440072 11.916033 0.611080 -8.918657 -12.021836 -1.583690 51.904423 7.521106 11.745859 -42.860014 0.000000 -0.000000 0.000000 -10.637207 6.776417 -14.594014 1.989249 19.323333 46.219208 6.913516 1.222065 -27.466131 0.000000 -0.000000 0.000000 -4.664251 -2.014093 4.013163 7.491214 -2.070966 0.407999 1.892283 -3.096952 4.325988 6.151386 4.878894 -17.846832 -4.275620 -0.488249 -4.775695 -22.700953 19.548024 -1.198564 -58.282547 -0.107921 11.468777 148.194767 -70.837746 -134.117080 20.039221 6.635626 -50.989886 26.950160 -13.573292 -7.679204 56.507787 3.124706 20.606013 -108.579315 65.482624 -95.350296 -12.016590 2.157522 -29.170492 
-0.156267 1.277212 0.868880 83.674052 5.318444 82.265699 11.187755 -0.034445 -9.322062 -11.931276 -2.009219 52.169035 7.601382 11.818170 -42.660210 0.000000 -0.000000 0.000000 -9.734137 7.592140 -14.873797 1.008535 20.422392 48.212465 7.582496 0.151865 -24.305472 0.000000 -0.000000 0.000000 -5.618261 -3.152118 4.700415 7.922674 -4.051456 0.288963 2.228810 -4.556200 4.827922 5.634486 3.891231 -17.165818 -3.125329 0.163146 -5.373191 -22.712749 17.474195 -1.248243 -60.155590 -3.224302 12.806271 145.768275 -70.491027 -132.667211 25.179554 9.572479 -49.361451 26.813010 -14.849054 -8.007179 57.053213 1.290706 21.317550 -110.016291 66.638798 -96.355175 -12.178264 1.929912 -28.596662 
